<?xml version="1.0" standalone="no"?>
<!DOCTYPE svg PUBLIC "-//W3C//DTD SVG 20010904//EN"
 "http://www.w3.org/TR/2001/REC-SVG-20010904/DTD/svg10.dtd">
<svg version="1.0" xmlns="http://www.w3.org/2000/svg"
 width="960.000000pt" height="960.000000pt" viewBox="0 0 960.000000 960.000000"
 preserveAspectRatio="xMidYMid meet">

<g transform="translate(0.000000,960.000000) scale(0.100000,-0.100000)"
fill="#000000" stroke="none">
<path d="M0 4800 l0 -4800 4800 0 4800 0 0 4800 0 4800 -4800 0 -4800 0 0
-4800z m9195 4290 c0 -19 -6 -26 -24 -28 -30 -5 -45 10 -36 38 10 32 60 24 60
-10z m-1591 14 c21 -8 20 -40 0 -52 -36 -20 -77 15 -53 44 12 15 28 17 53 8z
m-124 -49 c43 -22 52 -78 17 -113 -17 -16 -42 -28 -69 -31 -35 -5 -44 -10 -46
-28 -3 -18 -10 -23 -32 -23 -35 0 -40 13 -40 98 0 110 2 112 77 112 37 0 76
-6 93 -15z m452 -45 c12 -33 26 -60 29 -60 3 0 18 27 33 60 25 54 31 60 58 60
35 0 36 6 -19 -128 l-38 -93 -35 6 c-19 4 -36 8 -38 10 -4 4 -73 167 -79 188
-4 14 1 17 30 17 34 0 36 -2 59 -60z m1089 20 c13 -7 19 -7 19 0 0 5 14 10 30
10 l30 0 0 -89 0 -89 -70 0 c-65 0 -72 2 -88 26 -22 33 -21 91 1 125 18 28 45
34 78 17z m177 -82 l3 -88 -36 0 -35 0 0 83 c0 46 3 87 7 91 4 4 19 6 33 4 24
-3 25 -5 28 -90z m-984 68 c32 -13 67 -69 52 -84 -4 -4 -32 -7 -62 -7 -61 0
-70 -19 -10 -21 38 -1 63 -21 47 -37 -5 -5 -26 -11 -47 -14 -109 -14 -158 120
-61 162 40 18 41 18 81 1z m179 1 c24 5 27 2 27 -21 0 -14 -6 -26 -12 -26 -28
0 -42 -21 -47 -67 -6 -48 -8 -50 -51 -44 -6 0 -10 35 -10 80 0 68 3 80 18 84
9 2 24 0 32 -4 8 -4 28 -5 43 -2z m165 7 c16 -5 22 -13 20 -28 -3 -18 -9 -21
-40 -18 -23 2 -38 -1 -38 -7 0 -6 14 -11 30 -11 29 0 70 -29 70 -50 0 -23 -50
-60 -79 -60 -83 0 -113 47 -33 52 47 4 45 7 -13 24 -26 8 -30 14 -30 44 0 49
47 71 113 54z m189 -4 c20 0 53 -42 53 -67 0 -18 -6 -23 -27 -25 -16 0 -32 -2
-38 -3 -5 -2 -21 -3 -35 -4 -23 -1 -23 -3 -7 -12 11 -6 30 -9 43 -6 34 6 55
-20 29 -39 -44 -33 -127 -4 -145 50 -10 30 -9 40 6 66 20 32 57 51 89 45 11
-3 25 -5 32 -5z m-1129 -77 l-3 -78 -32 -3 -33 -3 0 80 0 81 35 0 36 0 -3 -77z
m111 60 c10 -17 12 -17 25 0 8 10 27 17 46 17 l32 0 -26 -34 c-31 -41 -32 -53
-7 -80 11 -12 21 -27 23 -35 4 -18 -48 -23 -63 -5 -13 16 -36 19 -41 5 -1 -5
-18 -12 -35 -16 -41 -8 -42 4 -7 51 l26 34 -26 34 c-14 19 -26 37 -26 40 0 3
16 6 35 6 22 0 38 -6 44 -17z m1161 -98 c15 -19 -3 -45 -31 -45 -19 0 -35 33
-24 50 9 15 41 12 55 -5z m-2176 -1472 c54 -43 70 -73 74 -139 4 -54 1 -70
-22 -108 -67 -114 -245 -114 -312 0 -22 38 -26 54 -22 103 5 70 39 129 89 155
49 24 155 18 193 -11z m1100 -537 c74 -31 100 -102 64 -174 -43 -87 14 -82
-873 -82 -837 0 -837 0 -937 -51 -53 -27 -133 -103 -164 -154 -58 -101 -64
-133 -304 -1845 -33 -239 -68 -471 -76 -515 -67 -337 -370 -566 -652 -491
-204 55 -345 265 -270 406 63 118 208 94 253 -41 44 -131 180 -137 296 -12 51
54 95 151 85 185 -4 13 -30 43 -59 67 -59 50 -297 279 -297 286 0 4 150 151
323 318 l29 27 26 -19 c15 -10 36 -28 46 -40 11 -12 22 -21 27 -21 4 0 10 24
14 53 17 131 65 465 71 495 4 17 3 32 -1 32 -11 0 -86 -71 -670 -639 -549
-532 -654 -629 -815 -747 -278 -205 -562 -323 -875 -365 -111 -15 -330 -7
-440 16 -356 73 -675 279 -878 567 -129 183 -201 348 -248 568 -33 152 -33
399 -1 559 33 161 64 252 131 385 173 341 444 580 811 715 166 61 462 89 652
61 380 -54 740 -230 1073 -524 107 -94 375 -358 375 -368 0 -9 -136 -147 -268
-272 l-93 -89 -137 135 c-171 167 -307 282 -440 369 -336 222 -688 293 -982
197 -139 -45 -249 -115 -365 -233 -225 -228 -313 -560 -234 -881 40 -164 120
-304 246 -427 117 -115 233 -184 383 -227 106 -31 313 -38 434 -16 169 32 351
113 512 229 181 129 274 215 914 838 190 185 368 358 397 385 28 27 96 92 150
144 94 91 312 282 418 365 28 21 53 42 57 45 4 3 16 57 27 120 26 152 51 229
105 323 117 204 276 310 526 350 14 2 380 5 813 6 649 1 793 -1 821 -13z
m-1005 -451 c136 -22 214 -43 320 -86 324 -132 591 -370 749 -668 77 -146 143
-357 162 -517 92 -805 -477 -1523 -1280 -1615 -226 -26 -487 8 -727 93 -144
51 -299 129 -296 149 1 8 11 64 22 124 46 250 61 341 61 368 0 34 7 34 71 -4
257 -151 544 -231 769 -215 161 12 346 74 466 157 66 45 189 164 216 208 12
20 25 38 30 41 16 12 87 168 112 247 20 64 46 208 46 255 0 5 -29 8 -64 8
l-64 0 -4 -158 c-4 -178 -12 -202 -71 -221 -39 -13 -70 -5 -104 28 -26 24 -25
16 -23 209 l1 142 -150 0 -150 0 -20 26 c-22 29 -27 77 -11 118 17 45 56 56
200 56 l131 0 -1 128 c-1 70 -1 139 -1 154 1 52 72 97 124 78 17 -5 31 -9 33
-7 8 8 -111 135 -176 187 -293 237 -679 271 -1067 94 -80 -36 -79 -37 -63 44
5 28 18 114 30 192 25 178 57 322 71 331 14 9 191 46 274 58 98 14 284 12 384
-4z m-132 -1144 c53 -33 56 -121 6 -161 -25 -19 -40 -20 -338 -20 -296 0 -314
1 -338 20 -49 39 -40 141 16 168 14 7 132 11 322 11 279 1 302 0 332 -18z m17
-352 c46 -54 26 -138 -36 -157 -20 -6 -157 -10 -336 -9 l-304 2 -24 28 c-33
39 -33 95 2 136 l26 31 323 0 323 0 26 -31z m424 -2030 l3 -136 47 24 c40 21
56 24 114 20 96 -8 134 -31 174 -107 21 -41 31 -251 19 -395 l-7 -85 -78 0
-79 0 -3 201 c-3 197 -3 201 -27 220 -32 26 -100 25 -134 -2 l-27 -20 -2 -197
-3 -197 -82 -3 -83 -3 0 405 0 405 63 4 c113 6 102 21 105 -134z m-4958 -224
l0 -305 150 0 150 0 2 -32 c2 -34 1 -70 -1 -100 -1 -17 -19 -18 -236 -18
l-235 0 0 380 0 380 85 0 85 0 0 -305z m3095 248 c15 -32 61 -127 101 -212 55
-116 75 -149 80 -135 4 10 36 80 71 154 35 74 76 161 90 193 l26 58 96 -3 96
-3 0 -375 0 -375 -82 -3 -83 -3 -2 236 -3 236 -76 -163 -76 -163 -64 -3 -64
-3 -75 160 c-41 88 -78 161 -81 161 -3 0 -4 -104 -1 -230 l5 -231 -84 3 -84 3
-3 115 c-2 63 0 233 3 378 l7 262 87 0 87 0 29 -57z m1465 -48 l0 -75 70 0 70
0 0 -70 0 -70 -70 0 -70 0 0 -138 c0 -130 1 -138 22 -151 12 -7 43 -13 68 -12
l47 1 7 -62 c4 -44 3 -64 -6 -69 -22 -14 -107 -21 -160 -14 -44 6 -60 15 -95
50 l-43 42 0 177 0 176 -40 0 -40 0 0 70 0 70 40 0 40 0 0 75 0 75 80 0 80 0
0 -75z m-3826 -86 c95 -35 138 -109 152 -256 l7 -73 -192 0 c-146 0 -191 -3
-191 -12 1 -24 26 -59 56 -79 36 -23 142 -26 203 -4 40 14 41 14 56 -10 49
-81 47 -72 19 -94 -41 -32 -101 -46 -199 -46 -109 0 -154 15 -213 69 -67 62
-86 111 -85 226 0 82 4 102 26 147 69 135 214 188 361 132z m555 10 c69 -14
112 -46 138 -99 21 -42 23 -59 24 -254 1 -238 4 -229 -84 -224 -45 3 -52 6
-55 25 l-3 22 -35 -24 c-92 -62 -265 -32 -308 53 -35 70 -25 167 23 220 40 43
119 64 221 60 76 -3 80 -2 80 18 0 12 -8 32 -19 45 -25 31 -128 39 -197 15
-54 -18 -62 -14 -75 40 -15 66 -13 70 44 87 98 30 164 34 246 16z m626 -69 l0
-75 -55 -5 c-117 -12 -130 -38 -130 -264 l0 -166 -80 0 -80 0 0 284 0 285 43
6 c24 4 56 5 73 3 25 -3 29 -8 32 -37 l3 -34 32 31 c38 35 80 52 127 49 l35
-2 0 -75z m502 47 c25 -16 52 -45 65 -69 22 -41 23 -54 23 -263 l0 -220 -82
-3 -83 -3 0 198 c-1 147 -4 202 -14 215 -16 21 -57 38 -82 33 -11 -2 -24 -4
-29 -4 -6 -1 -23 -12 -38 -26 l-27 -26 0 -195 0 -195 -82 3 -83 3 3 280 c1
153 4 280 5 281 1 1 35 6 75 9 l72 8 0 -28 c0 -22 3 -25 14 -16 70 59 188 66
263 18z m1730 5 c23 -12 54 -38 70 -58 l27 -37 8 -221 c4 -131 3 -225 -3 -230
-5 -5 -36 -12 -69 -14 -56 -4 -62 -3 -67 17 -7 26 -4 26 -48 0 -56 -33 -161
-38 -219 -9 -80 38 -114 112 -94 205 8 37 20 59 48 86 46 44 100 59 209 59 77
0 81 1 81 23 0 28 -9 41 -37 56 -30 15 -120 14 -178 -4 -27 -8 -50 -13 -51
-12 -8 8 -33 111 -29 117 5 8 69 31 120 44 11 3 58 4 105 2 64 -2 95 -8 127
-24z"/>
<path d="M7387 9013 c-4 -3 -7 -17 -7 -30 0 -18 6 -23 24 -23 28 0 51 24 42
45 -5 15 -47 21 -59 8z"/>
<path d="M8990 8950 c0 -27 3 -31 23 -28 16 2 22 10 22 28 0 18 -6 26 -22 28
-20 3 -23 -1 -23 -28z"/>
<path d="M8155 8969 c-4 -6 -5 -12 -3 -14 7 -7 48 7 48 16 0 13 -37 11 -45 -2z"/>
<path d="M8685 8971 c-3 -5 -1 -12 5 -16 14 -9 52 4 45 16 -8 12 -42 12 -50 0z"/>
<path d="M7398 5428 c-2 -13 -2 -71 0 -130 l4 -108 49 0 c33 0 49 4 49 13 0
28 -75 225 -92 242 -3 3 -7 -4 -10 -17z"/>
<path d="M2734 2691 c-27 -12 -64 -58 -64 -80 0 -15 14 -18 104 -20 60 -1 107
2 110 8 10 16 -11 59 -37 76 -31 20 -85 28 -113 16z"/>
<path d="M3313 2483 c-25 -5 -53 -38 -53 -63 0 -31 43 -60 88 -60 55 0 91 18
98 49 3 14 8 34 11 45 3 10 -1 22 -8 27 -14 9 -95 10 -136 2z"/>
<path d="M6112 2479 c-56 -17 -64 -81 -12 -109 25 -13 83 -13 115 2 28 12 38
39 33 84 -3 27 -6 29 -53 31 -27 1 -65 -3 -83 -8z"/>
</g>
</svg>
